Coordinates
version=1
nRows=27
nColumns=12
inDegrees=yes

Units are S.I. units (second, meters, Newtons, ...)
Angles are in degrees

endheader
time	SC_y	SC_z	SC_x	AC_y	AC_z	AC_x	GH_y	GH_z	GH_yy	EL_x	PS_y
       0.0              -34.94          36.12          63.04          41.15         -4.957         -12.91          98.74          74.16          112.7          57.72          24.14
    0.0198              -34.94          36.12          63.04          41.15         -4.957         -12.91          98.75          74.15          112.7          57.71          24.15
   0.03959              -34.94          36.12          63.04          41.15         -4.958         -12.91          98.76          74.14          112.7           57.7          24.16
   0.05939              -34.94          36.12          63.04          41.15         -4.958         -12.91          98.78          74.13          112.7           57.7          24.17
   0.07918              -34.94          36.11          63.04          41.15         -4.959         -12.91          98.79          74.11          112.6          57.69          24.18
   0.09898              -34.94          36.11          63.04          41.15         -4.959          -12.9           98.8           74.1          112.6          57.68          24.19
    0.1188              -34.94          36.11          63.03          41.15          -4.96          -12.9          98.82          74.08          112.6          57.67           24.2
    0.1386              -34.94           36.1          63.03          41.15          -4.96          -12.9          98.83          74.07          112.5          57.66          24.22
    0.1584              -34.94           36.1          63.03          41.15         -4.961          -12.9          98.85          74.05          112.5          57.65          24.23
    0.1782              -34.94           36.1          63.03          41.15         -4.962          -12.9          98.87          74.03          112.5          57.64          24.24
     0.198              -34.94          36.09          63.03          41.15         -4.963          -12.9          98.89          74.01          112.4          57.63          24.26
    0.2177              -34.94          36.09          63.03          41.15         -4.964          -12.9          98.91          73.99          112.4          57.61          24.28
    0.2375              -34.94          36.09          63.03          41.15         -4.965          -12.9          98.94          73.97          112.3           57.6           24.3
    0.2573              -34.94          36.08          63.03          41.15         -4.966         -12.89          98.96          73.94          112.3          57.58          24.32
    0.2771              -34.94          36.08          63.03          41.15         -4.967         -12.89          98.99          73.91          112.2          57.57          24.34
    0.2969              -34.94          36.07          63.03          41.15         -4.968         -12.89          99.02          73.88          112.1          57.55          24.36
    0.3167              -34.94          36.06          63.03          41.15         -4.969         -12.89          99.05          73.85          112.1          57.53          24.39
    0.3365              -34.94          36.06          63.03          41.15         -4.971         -12.89          99.08          73.82          112.0          57.51          24.41
    0.3563              -34.94          36.05          63.03          41.15         -4.972         -12.88          99.12          73.78          111.9          57.48          24.44
    0.3761              -34.94          36.04          63.03          41.15         -4.974         -12.88          99.16          73.73          111.8          57.46          24.48
    0.3959              -34.94          36.03          63.03          41.15         -4.976         -12.88          99.21          73.69          111.7          57.43          24.51
    0.4157              -34.93          36.02          63.03          41.15         -4.978         -12.87          99.26          73.64          111.6           57.4          24.55
    0.4355              -34.93          36.01          63.03          41.15          -4.98         -12.87          99.32          73.58          111.5          57.37           24.6
    0.4553              -34.93           36.0          63.02          41.15         -4.983         -12.87          99.38          73.52          111.4          57.33          24.65
    0.4751              -34.93          35.99          63.02          41.15         -4.986         -12.86          99.45          73.45          111.2          57.29           24.7
    0.4949              -34.93          35.97          63.02          41.15         -4.989         -12.86          99.52          73.37          111.1          57.24          24.76
    0.5147              -34.93          35.96          63.02          41.14         -4.992         -12.85          99.61          73.28          110.9          57.19          24.83
